<svg width="699" height="798" viewBox="0 0 699 798" fill="none" xmlns="http://www.w3.org/2000/svg">
<path fill-rule="evenodd" clip-rule="evenodd" d="M150.9 303.1C150.9 303.1 150.5 523.7 150.5 581.2C150.5 632.9 156.35 644 201.55 648.7V765.35C201.55 783.15 223.4 797.65 250.25 797.65C277.15 797.65 299.05 783.15 299.05 765.35V649.75C321.9 649.8 378.65 649.9 401.6 649.95V765.35C401.6 783.15 423.5 797.65 450.35 797.65C477.2 797.65 499.1 783.15 499.1 765.35V649C545.4 644 548 630.45 548 582.25C548 528.95 548.05 303.15 548.05 303.15H150.9V303.1Z" fill="#32B866"/>
<path fill-rule="evenodd" clip-rule="evenodd" d="M649.75 251.5C622.9 251.5 601 266 601 283.85L601.25 465.55C601.25 483.35 623.15 497.85 650 497.85C676.85 497.85 698.8 483.35 698.8 465.55L698.55 283.85C698.55 266 676.55 251.5 649.75 251.5Z" fill="#32B866"/>
<path fill-rule="evenodd" clip-rule="evenodd" d="M49.25 251.5C22.25 251.5 0.25 266.25 0.25 284.55V466.65C0.25 484.9 22.25 499.7 49.25 499.7C76.4 499.7 98.4 484.9 98.4 466.65V284.55C98.45 266.25 76.4 251.5 49.25 251.5Z" fill="#32B866"/>
<path fill-rule="evenodd" clip-rule="evenodd" d="M448.7 109.35C449.25 108.75 450 108.45 450.45 107.75L496.9 26.0499C502 18.0999 498.95 7.79991 490.2 3.19991C481.45 -1.40009 470.35 1.29991 465.25 9.34991L418.85 90.9999C417.95 92.3999 417.6 93.9499 417.2 95.4499C395.9 88.1499 373.2 83.8999 349.35 83.8999C325.25 83.8999 302.2 88.1999 280.75 95.5999C280.3 94.0499 280 92.4999 279.05 90.9999L235.45 8.39991C230.35 0.349913 219.25 -2.35009 210.55 2.24991C201.75 6.84991 198.75 17.1499 203.8 25.0999L247.4 107.75C247.9 108.55 248.8 108.9 249.5 109.6C196.65 138.55 161.55 189.5 152.15 249.75H549.55C540.05 189.3 501.65 138.3 448.7 109.35ZM302.1 202.1H246.9V149H302.1V202.1ZM452.1 201.05H399V146.9H452.1V201.05Z" fill="#32B866"/>
</svg>
